<?xml version="1.0" encoding="UTF-8" standalone="no"?>
<!-- Generator: Adobe Illustrator 16.2.1, SVG Export Plug-In . SVG Version: 6.00 Build 0)  -->

<svg
   xmlns:dc="http://purl.org/dc/elements/1.1/"
   xmlns:cc="http://creativecommons.org/ns#"
   xmlns:rdf="http://www.w3.org/1999/02/22-rdf-syntax-ns#"
   xmlns:svg="http://www.w3.org/2000/svg"
   xmlns="http://www.w3.org/2000/svg"
   xmlns:sodipodi="http://sodipodi.sourceforge.net/DTD/sodipodi-0.dtd"
   xmlns:inkscape="http://www.inkscape.org/namespaces/inkscape"
   version="1.1"
   id="Layer_1"
   x="0px"
   y="0px"
   width="512px"
   height="512px"
   viewBox="0 0 512 512"
   style="enable-background:new 0 0 512 512;"
   xml:space="preserve"
   inkscape:version="0.91 r13725"
   sodipodi:docname="next.svg"><metadata
     id="metadata11"><rdf:RDF><cc:Work
         rdf:about=""><dc:format>image/svg+xml</dc:format><dc:type
           rdf:resource="http://purl.org/dc/dcmitype/StillImage" /></cc:Work></rdf:RDF></metadata><defs
     id="defs9" /><sodipodi:namedview
     pagecolor="#ffffff"
     bordercolor="#666666"
     borderopacity="1"
     objecttolerance="10"
     gridtolerance="10"
     guidetolerance="10"
     inkscape:pageopacity="0"
     inkscape:pageshadow="2"
     inkscape:window-width="1920"
     inkscape:window-height="1017"
     id="namedview7"
     showgrid="false"
     inkscape:zoom="0.4609375"
     inkscape:cx="256"
     inkscape:cy="256"
     inkscape:window-x="0"
     inkscape:window-y="0"
     inkscape:window-maximized="1"
     inkscape:current-layer="Layer_1" /><style
     type="text/css"
     id="style3"><![CDATA[
	.st0{fill:#010101;}
]]></style><path
     class="st0"
     d="M436.3,96h-8.1c-6.7,0-12.2,5-12.2,11.7v113.5L228.9,98.7c-2.5-1.7-5.1-2.3-8.1-2.3c-8.3,0-15.4,7-15.4,17v63.1  L86.9,98.3c-2.5-1.7-5.1-2.3-8.1-2.3c-8.3,0-14.9,7.4-14.9,17.4v286c0,10,6.7,16.5,15,16.5c3.1,0,5.4-1.2,8.2-2.9l118.3-77.6v64  c0,10,7.2,16.5,15.5,16.5c3.1,0,5.5-1.2,8.2-2.9L416,290.8v113c0,6.7,5.4,12.2,12.2,12.2h8.1c6.7,0,11.7-5.5,11.7-12.2V107.7  C448,101,443.1,96,436.3,96z"
     id="path5"
     style="fill:#666666" /></svg>