<?xml version="1.0" encoding="UTF-8" standalone="no"?>
<!-- Generator: Adobe Illustrator 16.2.1, SVG Export Plug-In . SVG Version: 6.00 Build 0)  -->

<svg
   xmlns:dc="http://purl.org/dc/elements/1.1/"
   xmlns:cc="http://creativecommons.org/ns#"
   xmlns:rdf="http://www.w3.org/1999/02/22-rdf-syntax-ns#"
   xmlns:svg="http://www.w3.org/2000/svg"
   xmlns="http://www.w3.org/2000/svg"
   xmlns:sodipodi="http://sodipodi.sourceforge.net/DTD/sodipodi-0.dtd"
   xmlns:inkscape="http://www.inkscape.org/namespaces/inkscape"
   version="1.1"
   id="Layer_1"
   x="0px"
   y="0px"
   width="512px"
   height="512px"
   viewBox="0 0 512 512"
   style="enable-background:new 0 0 512 512;"
   xml:space="preserve"
   inkscape:version="0.91 r13725"
   sodipodi:docname="trash_clicked.svg"><metadata
     id="metadata9"><rdf:RDF><cc:Work
         rdf:about=""><dc:format>image/svg+xml</dc:format><dc:type
           rdf:resource="http://purl.org/dc/dcmitype/StillImage" /><dc:title></dc:title></cc:Work></rdf:RDF></metadata><defs
     id="defs7" /><sodipodi:namedview
     pagecolor="#ffffff"
     bordercolor="#666666"
     borderopacity="1"
     objecttolerance="10"
     gridtolerance="10"
     guidetolerance="10"
     inkscape:pageopacity="0"
     inkscape:pageshadow="2"
     inkscape:window-width="730"
     inkscape:window-height="480"
     id="namedview5"
     showgrid="false"
     inkscape:zoom="0.4609375"
     inkscape:cx="256"
     inkscape:cy="256"
     inkscape:window-x="0"
     inkscape:window-y="0"
     inkscape:window-maximized="0"
     inkscape:current-layer="Layer_1" /><path
     d="M341,128V99c0-19.1-14.5-35-34.5-35H205.4C185.5,64,171,79.9,171,99v29H80v32h9.2c0,0,5.4,0.6,8.2,3.4c2.8,2.8,3.9,9,3.9,9  l19,241.7c1.5,29.4,1.5,33.9,36,33.9h199.4c34.5,0,34.5-4.4,36-33.8l19-241.6c0,0,1.1-6.3,3.9-9.1c2.8-2.8,8.2-3.4,8.2-3.4h9.2v-32  h-91V128z M192,99c0-9.6,7.8-15,17.7-15h91.7c9.9,0,18.6,5.5,18.6,15v29H192V99z M183.5,384l-10.3-192h20.3L204,384H183.5z   M267.1,384h-22V192h22V384z M328.7,384h-20.4l10.5-192h20.3L328.7,384z"
     id="path3"
     style="fill:#4d4d4d" /></svg>